# xmcd CD database file
#
# Track frame offsets:
#	150
#	3856
#	36902
#	59767
#	86175
#	110964
#	130916
#	154240
#	175421
#	200301
#	220688
#	252828
#
# Disc length: 3997 seconds
#
# Revision: 0
# Processed by: cddbd v1.5.2PL0 Copyright (c) Steve Scherf et al.
# Submitted via: CDex 1.51
#
DISCID=ad0f9b0c
DTITLE=Adam Rudolph - 12 Arrows
DYEAR=1999
DGENRE=Jazz
TTITLE0=twe (prelude)
TTITLE1=el
TTITLE2=via
TTITLE3=air
TTITLE4=row
TTITLE5=so
TTITLE6=ra
TTITLE7=eve
TTITLE8=sa
TTITLE9=wa
TTITLE10=or
TTITLE11=we
EXTD=YEAR: 1999
EXTT0=
EXTT1=
EXTT2=
EXTT3=
EXTT4=
EXTT5=
EXTT6=
EXTT7=
EXTT8=
EXTT9=
EXTT10=
EXTT11=
PLAYORDER=
